<mxfile host="Electron" modified="2023-09-17T08:22:37.883Z" agent="Mozilla/5.0 (Windows NT 10.0; Win64; x64) AppleWebKit/537.36 (KHTML, like Gecko) draw.io/21.6.1 Chrome/112.0.5615.204 Electron/24.6.1 Safari/537.36" etag="vII29nh_RepkvxNur8T-" version="21.6.1" type="device">
  <diagram id="oQmM1uXOlRtBNv2QjxXV" name="Gender Flowchart">
    <mxGraphModel dx="1297" dy="827" grid="1" gridSize="10" guides="1" tooltips="1" connect="1" arrows="1" fold="1" page="1" pageScale="1" pageWidth="850" pageHeight="1100" math="0" shadow="0">
      <root>
        <mxCell id="0" />
        <mxCell id="1" parent="0" />
        <mxCell id="QquiGyNQ3uLiKKCrc8Cz-2" value="Start&amp;nbsp;" style="ellipse;whiteSpace=wrap;html=1;fillColor=#d80073;fontColor=#ffffff;strokeColor=#A50040;" vertex="1" parent="1">
          <mxGeometry x="17" y="110" width="120" height="80" as="geometry" />
        </mxCell>
        <mxCell id="QquiGyNQ3uLiKKCrc8Cz-4" value="" style="endArrow=classic;html=1;rounded=0;" edge="1" parent="1">
          <mxGeometry width="50" height="50" relative="1" as="geometry">
            <mxPoint x="79" y="192" as="sourcePoint" />
            <mxPoint x="79" y="270" as="targetPoint" />
          </mxGeometry>
        </mxCell>
        <mxCell id="QquiGyNQ3uLiKKCrc8Cz-13" value="" style="edgeStyle=orthogonalEdgeStyle;rounded=0;orthogonalLoop=1;jettySize=auto;html=1;entryX=0.5;entryY=0;entryDx=0;entryDy=0;" edge="1" parent="1" target="QquiGyNQ3uLiKKCrc8Cz-10">
          <mxGeometry relative="1" as="geometry">
            <mxPoint x="140" y="440" as="sourcePoint" />
            <mxPoint x="200" as="targetPoint" />
            <Array as="points">
              <mxPoint x="217" y="440" />
              <mxPoint x="217" y="70" />
              <mxPoint x="360" y="70" />
            </Array>
          </mxGeometry>
        </mxCell>
        <mxCell id="QquiGyNQ3uLiKKCrc8Cz-15" value="" style="edgeStyle=orthogonalEdgeStyle;rounded=0;orthogonalLoop=1;jettySize=auto;html=1;" edge="1" parent="1" source="QquiGyNQ3uLiKKCrc8Cz-10" target="QquiGyNQ3uLiKKCrc8Cz-14">
          <mxGeometry relative="1" as="geometry" />
        </mxCell>
        <mxCell id="QquiGyNQ3uLiKKCrc8Cz-18" value="" style="edgeStyle=orthogonalEdgeStyle;rounded=0;orthogonalLoop=1;jettySize=auto;html=1;" edge="1" parent="1" source="QquiGyNQ3uLiKKCrc8Cz-10" target="QquiGyNQ3uLiKKCrc8Cz-17">
          <mxGeometry relative="1" as="geometry" />
        </mxCell>
        <mxCell id="QquiGyNQ3uLiKKCrc8Cz-10" value="Gender =Male" style="rhombus;whiteSpace=wrap;html=1;fillColor=#d80073;fontColor=#ffffff;strokeColor=#A50040;" vertex="1" parent="1">
          <mxGeometry x="295" y="120" width="130" height="80" as="geometry" />
        </mxCell>
        <mxCell id="QquiGyNQ3uLiKKCrc8Cz-29" value="" style="edgeStyle=orthogonalEdgeStyle;rounded=0;orthogonalLoop=1;jettySize=auto;html=1;" edge="1" parent="1" source="QquiGyNQ3uLiKKCrc8Cz-14" target="QquiGyNQ3uLiKKCrc8Cz-28">
          <mxGeometry relative="1" as="geometry" />
        </mxCell>
        <mxCell id="QquiGyNQ3uLiKKCrc8Cz-14" value="Gender =Female" style="rhombus;whiteSpace=wrap;html=1;fillColor=#d80073;fontColor=#ffffff;strokeColor=#A50040;" vertex="1" parent="1">
          <mxGeometry x="295" y="280" width="130" height="80" as="geometry" />
        </mxCell>
        <mxCell id="QquiGyNQ3uLiKKCrc8Cz-16" value="No" style="text;html=1;align=center;verticalAlign=middle;resizable=0;points=[];autosize=1;strokeColor=none;fillColor=none;" vertex="1" parent="1">
          <mxGeometry x="310" y="218" width="40" height="30" as="geometry" />
        </mxCell>
        <mxCell id="QquiGyNQ3uLiKKCrc8Cz-31" value="" style="edgeStyle=orthogonalEdgeStyle;rounded=0;orthogonalLoop=1;jettySize=auto;html=1;entryX=0;entryY=0.5;entryDx=0;entryDy=0;" edge="1" parent="1" source="QquiGyNQ3uLiKKCrc8Cz-17" target="QquiGyNQ3uLiKKCrc8Cz-25">
          <mxGeometry relative="1" as="geometry">
            <mxPoint x="680" y="210" as="targetPoint" />
            <Array as="points">
              <mxPoint x="680" y="160" />
              <mxPoint x="680" y="232" />
            </Array>
          </mxGeometry>
        </mxCell>
        <mxCell id="QquiGyNQ3uLiKKCrc8Cz-17" value="Disp Male" style="rounded=1;whiteSpace=wrap;html=1;fillColor=#d80073;fontColor=#ffffff;strokeColor=#A50040;" vertex="1" parent="1">
          <mxGeometry x="510" y="130" width="120" height="60" as="geometry" />
        </mxCell>
        <mxCell id="QquiGyNQ3uLiKKCrc8Cz-21" value="" style="edgeStyle=orthogonalEdgeStyle;rounded=0;orthogonalLoop=1;jettySize=auto;html=1;" edge="1" parent="1" source="QquiGyNQ3uLiKKCrc8Cz-19" target="QquiGyNQ3uLiKKCrc8Cz-20">
          <mxGeometry relative="1" as="geometry" />
        </mxCell>
        <mxCell id="QquiGyNQ3uLiKKCrc8Cz-19" value="Gender = &quot;&quot;" style="rounded=1;whiteSpace=wrap;html=1;fillColor=#d80073;fontColor=#ffffff;strokeColor=#A50040;" vertex="1" parent="1">
          <mxGeometry x="20" y="270" width="120" height="60" as="geometry" />
        </mxCell>
        <mxCell id="QquiGyNQ3uLiKKCrc8Cz-20" value="Get Gender" style="rounded=1;whiteSpace=wrap;html=1;fillColor=#d80073;fontColor=#ffffff;strokeColor=#A50040;" vertex="1" parent="1">
          <mxGeometry x="20" y="410" width="120" height="60" as="geometry" />
        </mxCell>
        <mxCell id="QquiGyNQ3uLiKKCrc8Cz-22" value="Yes&lt;span style=&quot;white-space: pre;&quot;&gt;&#x9;&lt;/span&gt;" style="text;html=1;align=center;verticalAlign=middle;resizable=0;points=[];autosize=1;strokeColor=none;fillColor=none;" vertex="1" parent="1">
          <mxGeometry x="425" y="128" width="50" height="30" as="geometry" />
        </mxCell>
        <mxCell id="QquiGyNQ3uLiKKCrc8Cz-25" value="End" style="ellipse;whiteSpace=wrap;html=1;fillColor=#d80073;fontColor=#ffffff;strokeColor=#A50040;" vertex="1" parent="1">
          <mxGeometry x="720" y="192" width="120" height="80" as="geometry" />
        </mxCell>
        <mxCell id="QquiGyNQ3uLiKKCrc8Cz-28" value="Disp Female" style="rounded=1;whiteSpace=wrap;html=1;fillColor=#d80073;fontColor=#ffffff;strokeColor=#A50040;" vertex="1" parent="1">
          <mxGeometry x="510" y="290" width="120" height="60" as="geometry" />
        </mxCell>
        <mxCell id="QquiGyNQ3uLiKKCrc8Cz-33" value="Yes&lt;span style=&quot;white-space: pre;&quot;&gt;&#x9;&lt;/span&gt;" style="text;html=1;align=center;verticalAlign=middle;resizable=0;points=[];autosize=1;strokeColor=none;fillColor=none;" vertex="1" parent="1">
          <mxGeometry x="425" y="290" width="50" height="30" as="geometry" />
        </mxCell>
        <mxCell id="QquiGyNQ3uLiKKCrc8Cz-35" value="" style="endArrow=classic;html=1;rounded=0;exitX=1;exitY=0.5;exitDx=0;exitDy=0;" edge="1" parent="1" source="QquiGyNQ3uLiKKCrc8Cz-28">
          <mxGeometry width="50" height="50" relative="1" as="geometry">
            <mxPoint x="620" y="210" as="sourcePoint" />
            <mxPoint x="720" y="240" as="targetPoint" />
            <Array as="points">
              <mxPoint x="680" y="320" />
              <mxPoint x="680" y="240" />
            </Array>
          </mxGeometry>
        </mxCell>
      </root>
    </mxGraphModel>
  </diagram>
</mxfile>
